<?xml version="1.0" standalone="no"?><!DOCTYPE svg PUBLIC "-//W3C//DTD SVG 1.1//EN" "http://www.w3.org/Graphics/SVG/1.1/DTD/svg11.dtd"><svg t="1739607403786" class="icon" viewBox="0 0 1024 1024" version="1.1" xmlns="http://www.w3.org/2000/svg" p-id="4623" xmlns:xlink="http://www.w3.org/1999/xlink" width="200" height="200"><path d="M388.4032 277.79072l83.00544 83.02592h81.16224l83.02592-82.98496a25.6 25.6 0 0 1 36.22912 36.20864L625.00864 360.81664h53.39136a89.6 89.6 0 0 1 89.6 89.6v204.8a89.6 89.6 0 0 1-89.6 89.6h-332.8a89.6 89.6 0 0 1-89.6-89.6v-204.8a89.6 89.6 0 0 1 89.6-89.6h53.37088l-46.7968-46.81728a25.6 25.6 0 0 1 36.22912-36.22912v0.02048zM678.4 412.01664h-332.8c-19.78368 0-36.33152 15.03232-38.21568 34.7136l-0.18432 3.6864v204.8c0 19.78368 15.03232 36.33152 34.7136 38.21568l3.6864 0.18432h332.8c19.78368 0 36.33152-15.03232 38.21568-34.7136l0.18432-3.6864v-204.8C716.8 429.19936 699.5968 412.01664 678.4 412.01664zM409.6 488.81664c14.1312 0 25.6 11.4688 25.6 25.6v51.2a25.6 25.6 0 0 1-51.2 0V514.41664c0-14.1312 11.4688-25.6 25.6-25.6z m204.8 0c14.1312 0 25.6 11.4688 25.6 25.6v51.2a25.6 25.6 0 0 1-51.2 0V514.41664c0-14.1312 11.4688-25.6 25.6-25.6z" p-id="4624" fill="#8e8e8e"></path></svg>